<?xml version="1.0" encoding="UTF-8" standalone="no"?>
<svg
   xmlns:dc="http://purl.org/dc/elements/1.1/"
   xmlns:cc="http://creativecommons.org/ns#"
   xmlns:rdf="http://www.w3.org/1999/02/22-rdf-syntax-ns#"
   xmlns:svg="http://www.w3.org/2000/svg"
   xmlns="http://www.w3.org/2000/svg"
   xmlns:sodipodi="http://sodipodi.sourceforge.net/DTD/sodipodi-0.dtd"
   xmlns:inkscape="http://www.inkscape.org/namespaces/inkscape"
   version="1.1"
   id="Capa_1"
   x="0px"
   y="0px"
   viewBox="0 0 350.00001 512.00001"
   xml:space="preserve"
   sodipodi:docname="car.svg"
   width="350"
   height="512"
   inkscape:version="1.0.1 (3bc2e813f5, 2020-09-07)"><metadata
   id="metadata1619"><rdf:RDF><cc:Work
       rdf:about=""><dc:format>image/svg+xml</dc:format><dc:type
         rdf:resource="http://purl.org/dc/dcmitype/StillImage" /></cc:Work></rdf:RDF></metadata><defs
   id="defs1617" /><sodipodi:namedview
   pagecolor="#ffffff"
   bordercolor="#666666"
   borderopacity="1"
   objecttolerance="10"
   gridtolerance="10"
   guidetolerance="10"
   inkscape:pageopacity="0"
   inkscape:pageshadow="2"
   inkscape:window-width="1920"
   inkscape:window-height="1017"
   id="namedview1615"
   showgrid="false"
   inkscape:zoom="1.1739124"
   inkscape:cx="152.93147"
   inkscape:cy="252.72692"
   inkscape:window-x="-8"
   inkscape:window-y="-8"
   inkscape:window-maximized="1"
   inkscape:current-layer="Capa_1" />
<g
   id="g1554"
   transform="matrix(1,0,0,-1,-81,511.9985)">
	<path
   style="fill:#e38100"
   d="m 324.282,366.931 74.624,-29.874 c 6.47,-2.586 10.72,-8.851 10.729,-15.824 v -22.584 l -85.353,34.141 z"
   id="path1550" />
	<path
   style="fill:#e38100"
   d="M 187.716,366.931 V 332.79 l -85.353,-34.141 v 22.584 c 0.009,6.973 4.259,13.238 10.729,15.824 z"
   id="path1552" />
</g>
<path
   style="fill:#ffbc05"
   d="m 112.051,27.8945 29.327,-12.564 c 21.475,-9.158 45.766,-9.158 67.241,0 l 29.327,12.521 c 33.732,14.348 54.464,48.711 51.425,85.242 l -11.949,142.933 12.274,146.68 c 2.868,34.688 -15.714,67.625 -46.893,83.1 l -6.734,3.354 c -38.46,19.145 -83.68,19.145 -122.141,0 l -6.734,-3.354 c -31.18,-15.475 -49.761,-48.412 -46.893,-83.1 l 12.274,-146.68 -11.949,-142.967 c -3.005,-36.506 17.719,-70.826 51.425,-85.165 z"
   id="path1556" />
<path
   style="fill:#e38100"
   d="m 61.223,120.3995 c 48.028,-63.341 129.489,-91.499 206.376,-71.33 -8.237,-9.116 -18.351,-16.345 -29.652,-21.176 L 208.62,15.3295 c -21.475,-9.158 -45.766,-9.158 -67.241,0 l -29.327,12.521 c -33.732,14.348 -54.464,48.711 -51.425,85.242 z"
   id="path1558" />
<path
   style="fill:#23aec8"
   d="m 241.096,146.9275 2.185,1.425 c 5.275,3.499 8.177,9.628 7.545,15.927 l -7.545,74.778 H 106.716 l -7.511,-74.778 c -0.64,-6.291 2.253,-12.419 7.511,-15.927 l 2.151,-1.425 c 40.057,-26.604 92.165,-26.604 132.229,0 z"
   id="path1560" />
<path
   style="fill:#1967a3"
   d="m 239.808,146.1425 c -39.911,-25.785 -91.311,-25.478 -130.906,0.785 l -2.185,1.425 c -5.275,3.499 -8.177,9.628 -7.545,15.927 l 5.744,57.187 c 32.758,-42.514 81.512,-69.733 134.892,-75.324 z"
   id="path1562" />
<path
   style="fill:#23aec8"
   d="M 243.282,358.4505 H 106.716 l -6.555,39.331 c -1.186,7.118 2.228,14.22 8.535,17.728 l 16.55,9.193 c 30.932,17.19 68.556,17.19 99.488,0 l 16.55,-9.193 c 6.308,-3.508 9.722,-10.609 8.535,-17.728 z"
   id="path1564" />
<path
   style="fill:#1967a3"
   d="m 108.705,415.5085 8.339,4.635 c 33.544,-29.592 73.668,-50.743 117.036,-61.693 H 106.716 l -6.555,39.331 c -1.186,7.126 2.236,14.219 8.544,17.727 z"
   id="path1566" />
<g
   id="g1572"
   transform="matrix(1,0,0,-1,-81,511.9985)">
	
		<rect
   x="285"
   y="418.12601"
   transform="matrix(-0.5547,0.8321,-0.8321,-0.5547,845.9393,400.5753)"
   style="fill:#555160"
   width="61.550999"
   height="17.070999"
   id="rect1568" />
	
		<rect
   x="187.70399"
   y="395.897"
   transform="matrix(-0.8321,0.5547,-0.5547,-0.8321,596.1896,672.8424)"
   style="fill:#555160"
   width="17.070999"
   height="61.550999"
   id="rect1570" />
</g>
<path
   d="M 251.006,247.6015 H 99.035 l -8.279,-82.46 c -0.964,-9.449 3.397,-18.658 11.326,-23.899 l 2.151,-1.425 c 42.881,-28.568 98.737,-28.568 141.618,0 l 2.159,1.434 c 7.929,5.241 12.282,14.45 11.318,23.899 z m -12.47,-92.121 -2.159,-1.434 c -37.171,-24.761 -85.584,-24.761 -122.755,0 l -2.151,1.425 c -2.629,1.75 -4.08,4.814 -3.764,7.955 l 6.734,67.105 H 235.6 l 6.734,-67.113 c 0.299,-3.142 -1.161,-6.197 -3.798,-7.938 z"
   id="path1574" />
<path
   d="m 99.487,349.9145 h 151.024 l 7.742,46.458 c 1.775,10.678 -3.346,21.33 -12.803,26.605 l -16.55,9.193 c -33.476,18.735 -74.291,18.735 -107.767,0 l -16.567,-9.193 c -9.449,-5.275 -14.57,-15.918 -12.803,-26.596 z m 13.366,58.143 16.55,9.193 c 28.329,15.85 62.863,15.85 91.191,0 l 16.55,-9.193 c 3.15,-1.767 4.848,-5.318 4.268,-8.877 l -5.36,-32.195 H 113.946 l -5.369,32.204 c -0.597,3.568 1.118,7.118 4.276,8.868 z"
   id="path1576" />
<rect
   x="-151.74341"
   y="-23.683237"
   transform="matrix(-0.83206568,-0.55467712,-0.55467712,0.83206568,0,0)"
   width="17.071703"
   height="61.553539"
   id="rect1578"
   style="stroke-width:1.00004" />
<rect
   x="-231.95123"
   y="-156.66321"
   transform="matrix(-0.55490787,-0.83191181,-0.83191181,0.55490787,0,0)"
   width="61.555126"
   height="17.069757"
   id="rect1580"
   style="stroke-width:0.999986" />
<path
   d="m 333.423,220.4165 c -2.347,1.588 -5.335,1.912 -7.963,0.854 l -35.379,-14.152 -4.123,48.907 12.223,145.954 c 3.312,38.213 -17.165,74.548 -51.57,91.499 l -6.743,3.354 c -40.884,20.22 -88.853,20.22 -129.737,0 l -6.734,-3.354 c -34.423,-16.943 -54.916,-53.278 -51.605,-91.499 l 12.248,-145.954 -4.097,-48.942 -35.379,14.152 c -4.37,1.767 -9.346,-0.341 -11.113,-4.711 -0.41,-1.007 -0.623,-2.083 -0.623,-3.175 v -22.584 c -0.034,-10.481 6.35,-19.913 16.098,-23.779 l 26.741,-10.695 -3.576,-42.489 c -3.363,-40.193 19.461,-78.004 56.589,-93.752 l 29.327,-12.521 c 23.626,-10.038 50.324,-10.038 73.95,0 l 29.327,12.521 c 37.146,15.739 59.986,53.551 56.623,93.752 l -3.559,42.489 26.741,10.695 c 9.739,3.867 16.115,13.298 16.081,23.779 v 22.584 c 0,2.834 -1.408,5.48 -3.747,7.067 z m -277.919,-45.672 -20.237,8.1 c -3.252,1.28 -5.377,4.43 -5.369,7.921 v 9.978 l 25.606,-10.242 z M 234.593,35.7465 205.266,23.2335 c -19.341,-8.22 -41.191,-8.22 -60.533,0 l -29.327,12.513 c -30.343,12.88 -48.993,43.786 -46.244,76.639 l 11.949,143.641 -12.299,147.414 c -2.689,31.231 14.049,60.908 42.173,74.752 l 6.743,3.354 c 36.087,17.856 78.448,17.856 114.536,0 l 6.734,-3.354 c 28.124,-13.844 44.87,-43.522 42.182,-74.752 l -12.291,-147.414 12.018,-143.684 c 2.713,-32.852 -15.963,-63.742 -46.314,-76.596 z m 85.506,155.019 c 0.009,-3.491 -2.117,-6.64 -5.369,-7.921 l -20.237,-8.1 v 15.756 l 25.606,10.242 z"
   id="path1582" />
<g
   id="g1584"
   transform="matrix(1,0,0,-1,-81,511.9985)">
</g>
<g
   id="g1586"
   transform="matrix(1,0,0,-1,-81,511.9985)">
</g>
<g
   id="g1588"
   transform="matrix(1,0,0,-1,-81,511.9985)">
</g>
<g
   id="g1590"
   transform="matrix(1,0,0,-1,-81,511.9985)">
</g>
<g
   id="g1592"
   transform="matrix(1,0,0,-1,-81,511.9985)">
</g>
<g
   id="g1594"
   transform="matrix(1,0,0,-1,-81,511.9985)">
</g>
<g
   id="g1596"
   transform="matrix(1,0,0,-1,-81,511.9985)">
</g>
<g
   id="g1598"
   transform="matrix(1,0,0,-1,-81,511.9985)">
</g>
<g
   id="g1600"
   transform="matrix(1,0,0,-1,-81,511.9985)">
</g>
<g
   id="g1602"
   transform="matrix(1,0,0,-1,-81,511.9985)">
</g>
<g
   id="g1604"
   transform="matrix(1,0,0,-1,-81,511.9985)">
</g>
<g
   id="g1606"
   transform="matrix(1,0,0,-1,-81,511.9985)">
</g>
<g
   id="g1608"
   transform="matrix(1,0,0,-1,-81,511.9985)">
</g>
<g
   id="g1610"
   transform="matrix(1,0,0,-1,-81,511.9985)">
</g>
<g
   id="g1612"
   transform="matrix(1,0,0,-1,-81,511.9985)">
</g>
</svg>
