<?xml version="1.0" encoding="utf-8"?>
<!-- Generator: Adobe Illustrator 25.0.0, SVG Export Plug-In . SVG Version: 6.00 Build 0)  -->
<svg version="1.1" id="Capa_1" xmlns="http://www.w3.org/2000/svg" xmlns:xlink="http://www.w3.org/1999/xlink" x="0px" y="0px"
	 viewBox="0 0 97.3 97.3" style="enable-background:new 0 0 97.3 97.3;" xml:space="preserve">
<g>
	<path d="M13.3,62.8l33.9,33.9c0.8,0.8,2,0.8,2.8,0L84,62.8c0.8-0.8,0.8-2,0-2.8l-9-9c-0.4-0.4-0.9-0.6-1.4-0.6
		c-0.5,0-1,0.2-1.4,0.6L57.6,65.5V2c0-1.1-0.9-2-2-2L41.7,0c-1.1,0-2,0.9-2,2v63.5L25.2,50.9c-0.8-0.8-2.1-0.8-2.8,0l-9,9
		c-0.4,0.4-0.6,0.9-0.6,1.4C12.7,61.9,13,62.4,13.3,62.8z"/>
</g>
</svg>
