<?xml version="1.0" encoding="UTF-8" standalone="no"?>
<svg
   xmlns:dc="http://purl.org/dc/elements/1.1/"
   xmlns:cc="http://creativecommons.org/ns#"
   xmlns:rdf="http://www.w3.org/1999/02/22-rdf-syntax-ns#"
   xmlns:svg="http://www.w3.org/2000/svg"
   xmlns="http://www.w3.org/2000/svg"
   xmlns:sodipodi="http://sodipodi.sourceforge.net/DTD/sodipodi-0.dtd"
   xmlns:inkscape="http://www.inkscape.org/namespaces/inkscape"
   width="200mm"
   height="300mm"
   viewBox="0 0 200 300"
   version="1.1"
   id="svg904"
   inkscape:version="1.0.1 (3bc2e813f5, 2020-09-07)"
   sodipodi:docname="lane_arrow_closed.svg">
  <defs
     id="defs898">
    <inkscape:path-effect
       effect="bspline"
       id="path-effect4343"
       is_visible="true"
       lpeversion="1"
       weight="33.333333"
       steps="2"
       helper_size="0"
       apply_no_weight="true"
       apply_with_weight="true"
       only_selected="false" />
    <inkscape:path-effect
       effect="bspline"
       id="path-effect4339"
       is_visible="true"
       lpeversion="1"
       weight="33.333333"
       steps="2"
       helper_size="0"
       apply_no_weight="true"
       apply_with_weight="true"
       only_selected="false" />
    <inkscape:path-effect
       effect="bspline"
       id="path-effect4335"
       is_visible="true"
       lpeversion="1"
       weight="33.333333"
       steps="2"
       helper_size="0"
       apply_no_weight="true"
       apply_with_weight="true"
       only_selected="false" />
  </defs>
  <sodipodi:namedview
     id="base"
     pagecolor="#ffffff"
     bordercolor="#666666"
     borderopacity="1.0"
     inkscape:pageopacity="0.0"
     inkscape:pageshadow="2"
     inkscape:zoom="0.35"
     inkscape:cx="-825.91676"
     inkscape:cy="540"
     inkscape:document-units="mm"
     inkscape:current-layer="layer1"
     inkscape:document-rotation="0"
     showgrid="false"
     inkscape:window-width="2560"
     inkscape:window-height="1377"
     inkscape:window-x="-8"
     inkscape:window-y="-8"
     inkscape:window-maximized="1" />
  <metadata
     id="metadata901">
    <rdf:RDF>
      <cc:Work
         rdf:about="">
        <dc:format>image/svg+xml</dc:format>
        <dc:type
           rdf:resource="http://purl.org/dc/dcmitype/StillImage" />
        <dc:title></dc:title>
      </cc:Work>
    </rdf:RDF>
  </metadata>
  <g
     inkscape:label="Layer 1"
     inkscape:groupmode="layer"
     id="layer1"
     transform="translate(-8.3154764,-5.2916665)">
    <path
       style="fill:none;fill-opacity:1;stroke:#5b5555;stroke-width:20;stroke-linecap:round;stroke-linejoin:miter;stroke-miterlimit:4;stroke-dasharray:none;stroke-opacity:1"
       d="m 108.31548,275.25241 3.9e-4,-199.862892"
       id="path1469" />
    <g
       id="g2314"
       transform="matrix(0.26458333,0,0,0.26458333,40.315476,139.46527)">
      <g
         id="g2242">
        <path
           d="m 61,165 h 30 v 90 H 61 Z"
           fill="#ff8066"
           id="path2240" />
      </g>
      <g
         id="g2246">
        <path
           d="M 61,375 H 91 V 497 H 61 Z"
           fill="#ff8066"
           id="path2244" />
      </g>
      <g
         id="g2252">
        <g
           id="g2250">
          <path
             d="m 421,165 h 30 v 90 h -30 z"
             fill="#fd435b"
             id="path2248" />
        </g>
      </g>
      <g
         id="g2256">
        <path
           d="m 421,375 h 30 v 122 h -30 z"
           fill="#fd435b"
           id="path2254" />
      </g>
      <g
         id="g2270">
        <path
           d="M 0,30 V 180 L 37.434,158.566 121,75 151,30 Z"
           fill="#5b5555"
           id="path2258" />
        <path
           d="M 256,30 H 151 L 0,180 H 181 L 208.079,167.921 256,120 310.395,65.605 331,30 Z"
           fill="#fed843"
           id="path2260" />
        <path
           d="m 331,30 h -75 v 90 l 54.395,-54.395 z"
           fill="#ffcc66"
           id="path2262" />
        <path
           d="m 331,30 -75,75 -75,75 h 75 105 L 386.54,169.46 497,60 512,30 Z"
           fill="#5b5555"
           id="path2264" />
        <path
           d="M 386.54,169.46 497,60 512,30 H 331 l -75,75 v 75 h 105 z"
           fill="#463f3f"
           id="path2266" />
        <path
           d="M 361,180 H 512 V 30 Z"
           fill="#ffcc66"
           id="path2268" />
      </g>
      <circle
         cx="256"
         cy="105"
         fill="#ff8066"
         r="105"
         id="circle2272" />
      <path
         d="M 361,105 C 361,47.109 313.891,0 256,0 v 210 c 57.891,0 105,-47.109 105,-105 z"
         fill="#fd435b"
         id="path2274" />
      <g
         id="g2278">
        <path
           d="m 31,482 h 90 v 30 H 31 Z"
           fill="#5b5555"
           id="path2276" />
      </g>
      <g
         id="g2282">
        <path
           d="m 391,482 h 90 v 30 h -90 z"
           fill="#463f3f"
           id="path2280" />
      </g>
      <g
         id="g2308">
        <g
           id="g2286">
          <path
             d="M 0,240 V 390 L 37.434,368.566 121,285 151,240 Z"
             fill="#5b5555"
             id="path2284" />
        </g>
        <g
           id="g2290">
          <path
             d="M 256,240 H 151 L 0,390 H 181 L 208.079,377.921 256,330 310.395,275.605 331,240 Z"
             fill="#fed843"
             id="path2288" />
        </g>
        <g
           id="g2294">
          <path
             d="m 331,240 h -75 v 90 l 54.395,-54.395 z"
             fill="#ffcc66"
             id="path2292" />
        </g>
        <g
           id="g2298">
          <path
             d="m 331,240 -75,75 -75,75 h 75 105 L 386.54,379.46 497,270 512,240 Z"
             fill="#5b5555"
             id="path2296" />
        </g>
        <g
           id="g2302">
          <path
             d="M 386.54,379.46 497,270 512,240 H 331 l -75,75 v 75 h 105 z"
             fill="#463f3f"
             id="path2300" />
        </g>
        <g
           id="g2306">
          <path
             d="M 361,390 H 512 V 240 Z"
             fill="#ffcc66"
             id="path2304" />
        </g>
      </g>
      <path
         d="m 256,90 h -45 v 30 h 45 45 V 90 Z"
         fill="#f0f7ff"
         id="path2310" />
      <path
         d="m 256,90 h 45 v 30 h -45 z"
         fill="#dfe7f4"
         id="path2312" />
    </g>
    <path
       style="fill:none;stroke:#5b5555;stroke-width:20;stroke-linecap:round;stroke-linejoin:round;stroke-miterlimit:4;stroke-dasharray:none;stroke-opacity:1"
       d="M 69.642717,108.36916 108.31548,57.506261 146.98824,108.36916"
       id="path4345"
       sodipodi:nodetypes="ccc" />
  </g>
  <g
     inkscape:groupmode="layer"
     id="layer2"
     inkscape:label="Layer 2" />
</svg>
