<svg id="Capa_1" enable-background="new 0 0 512 512" height="512" viewBox="0 0 512 512" width="512" xmlns="http://www.w3.org/2000/svg"><g><g><path d="m61 165h30v90h-30z" fill="#ff8066"/></g><g><path d="m61 375h30v122h-30z" fill="#ff8066"/></g><g><g><path d="m421 165h30v90h-30z" fill="#fd435b"/></g></g><g><path d="m421 375h30v122h-30z" fill="#fd435b"/></g><g><path d="m0 30v150l37.434-21.434 83.566-83.566 30-45z" fill="#5b5555"/><path d="m256 30h-105l-151 150h181l27.079-12.079 47.921-47.921 54.395-54.395 20.605-35.605z" fill="#fed843"/><path d="m331 30h-75v90l54.395-54.395z" fill="#fc6"/><path d="m331 30-75 75-75 75h75 105l25.54-10.54 110.46-109.46 15-30z" fill="#5b5555"/><path d="m386.54 169.46 110.46-109.46 15-30h-181l-75 75v75h105z" fill="#463f3f"/><path d="m361 180h151v-150z" fill="#fc6"/></g><circle cx="256" cy="105" fill="#ff8066" r="105"/><path d="m361 105c0-57.891-47.109-105-105-105v210c57.891 0 105-47.109 105-105z" fill="#fd435b"/><g><path d="m31 482h90v30h-90z" fill="#5b5555"/></g><g><path d="m391 482h90v30h-90z" fill="#463f3f"/></g><g><g><path d="m0 240v150l37.434-21.434 83.566-83.566 30-45z" fill="#5b5555"/></g><g><path d="m256 240h-105l-151 150h181l27.079-12.079 47.921-47.921 54.395-54.395 20.605-35.605z" fill="#fed843"/></g><g><path d="m331 240h-75v90l54.395-54.395z" fill="#fc6"/></g><g><path d="m331 240-75 75-75 75h75 105l25.54-10.54 110.46-109.46 15-30z" fill="#5b5555"/></g><g><path d="m386.54 379.46 110.46-109.46 15-30h-181l-75 75v75h105z" fill="#463f3f"/></g><g><path d="m361 390h151v-150z" fill="#fc6"/></g></g><path d="m256 90h-45v30h45 45v-30z" fill="#f0f7ff"/><path d="m256 90h45v30h-45z" fill="#dfe7f4"/></g></svg>